<?xml version="1.0" encoding="UTF-8"?>
<!DOCTYPE svg PUBLIC "-//W3C//DTD SVG 1.1//EN" "http://www.w3.org/Graphics/SVG/1.1/DTD/svg11.dtd">
<!-- Creator: CorelDRAW X8 -->
<svg xmlns="http://www.w3.org/2000/svg" xml:space="preserve" width="2480px" height="2480px" version="1.1" style="shape-rendering:geometricPrecision; text-rendering:geometricPrecision; image-rendering:optimizeQuality; fill-rule:evenodd; clip-rule:evenodd"
viewBox="0 0 2480 2480"
 xmlns:xlink="http://www.w3.org/1999/xlink">
 <defs>
  <style type="text/css">
   <![CDATA[
    .fil2 {fill:#1A1A1A}
    .fil0 {fill:#999999}
    .fil1 {fill:white}
   ]]>
  </style>
 </defs>
 <g id="Layer_x0020_2">
  <metadata id="CorelCorpID_0Corel-Layer"/>
  <rect class="fil0" x="-118" y="-118" width="2716" height="2716" rx="118" ry="118"/>
  <g id="_2269932396576">
   <rect class="fil1" x="1535" y="709" width="295" height="1122"/>
   <rect class="fil1" y="709" width="1653" height="236"/>
   <rect class="fil1" y="1535" width="1653" height="236"/>
   <rect class="fil1" x="709" y="827" width="236" height="827"/>
   <rect class="fil1" x="709" y="1712" width="236" height="768"/>
   <rect class="fil1" x="1535" y="1712" width="295" height="768"/>
   <rect class="fil1" x="709" y="2" width="236" height="826"/>
   <rect class="fil1" x="1535" y="4" width="295" height="825"/>
  </g>
 </g>
 <g id="Layer_x0020_1">
  <metadata id="CorelCorpID_1Corel-Layer"/>
  <path class="fil1" d="M1651 1654l708 0c65,0 118,53 118,118l0 590c0,65 -53,118 -118,118l-708 0 0 -826z"/>
  <rect id="small" class="fil2" x="1830" y="1949" width="472" height="472" rx="85" ry="85"/>
  <rect class="fil1" x="825" y="1654" width="826" height="826"/>
  <rect id="med" class="fil2" x="945" y="1830" width="590" height="590" rx="106" ry="106"/>
  <path class="fil1" d="M-1 1654l826 0 0 826 -708 0c-65,0 -118,-53 -118,-118l0 -708z"/>
  <rect id="huge" class="fil2" x="58" y="1713" width="708" height="708" rx="127" ry="127"/>
  <path class="fil0" d="M1770 828l707 0 0 826 -707 0c-65,0 -119,-53 -119,-118l0 -590c0,-65 54,-118 119,-118z"/>
  <rect class="fil1" x="825" y="828" width="826" height="826"/>
  <rect id="small_0" class="fil2" x="945" y="1005" width="472" height="472" rx="85" ry="85"/>
  <rect class="fil1" x="-1" y="828" width="826" height="826"/>
  <rect id="huge_1" class="fil2" x="58" y="887" width="708" height="708" rx="127" ry="127"/>
  <path class="fil1" d="M1651 2l708 0c65,0 118,53 118,118l0 590c0,65 -53,118 -118,118l-708 0 0 -826z"/>
  <rect id="small_2" class="fil2" x="1830" y="59" width="472" height="472" rx="85" ry="85"/>
  <rect class="fil1" x="825" y="2" width="826" height="826"/>
  <rect id="med_3" class="fil2" x="945" y="59" width="590" height="590" rx="106" ry="106"/>
  <path class="fil1" d="M117 2l708 0 0 826 -826 0 0 -708c0,-65 53,-118 118,-118z"/>
  <rect id="huge_4" class="fil2" x="59" y="59" width="708" height="708" rx="127" ry="127"/>
 </g>
</svg>
